<svg width="25" height="25" viewBox="0 0 25 25" fill="none" xmlns="http://www.w3.org/2000/svg">
  <g clip-path="url(#clip0_2_32)">
    <path d="M12.6496 24.4665C10.5491 24.4671 8.49816 23.914 6.6904 22.8622L0.513853 24.5671L2.17122 18.1968C1.21946 16.4348 0.720758 14.4607 0.720636 12.4546V12.4493C0.720636 5.82675 6.06783 0.435827 12.6402 0.432997C15.825 0.431726 18.8198 1.68055 21.0729 3.9495C23.3258 6.21805 24.5672 9.23514 24.5686 12.4498C24.5686 19.0731 19.2217 24.4637 12.6496 24.4664" fill="url(#paint0_linear_2_32)"/>
    <path d="M12.6535 24.8955C10.4774 24.8962 8.3531 24.3232 6.48062 23.234L0.082655 25L1.79942 18.4013C0.815794 16.5831 0.29719 14.536 0.296415 12.453V12.4477C0.296415 5.5875 5.83595 0.00292969 12.6436 0C15.9428 -0.00117111 19.0453 1.29258 21.3791 3.64258C23.7126 5.99287 24.9986 9.11787 25 12.4477C25 19.309 19.4612 24.8928 12.6535 24.8955ZM6.8031 20.9658L7.19118 21.2122C8.82529 22.2479 10.7137 22.7946 12.6527 22.7938C18.3111 22.7916 22.9147 18.1506 22.9147 12.4437C22.9136 9.68008 21.8446 7.08281 19.905 5.1293C17.9653 3.17588 15.3868 2.10098 12.6444 2.10166C6.98595 2.1042 2.38178 6.74531 2.38178 12.4477V12.4518C2.38275 14.3085 2.87752 16.1295 3.8125 17.7176L4.03488 18.0955L3.01618 22.0113L6.8032 20.9658H6.8031Z" fill="url(#paint1_linear_2_32)"/>
    <path d="M17.8151 15.5588C18.329 15.7918 18.3393 16.037 18.3484 16.2586C18.3561 16.44 18.3555 16.6474 18.3555 16.8547C18.3555 17.0621 18.2781 17.3991 17.9695 17.684C17.6606 17.9691 16.9141 18.7726 15.3957 18.7726C13.8773 18.7726 12.41 17.6581 12.2039 17.5027C11.9982 17.3472 8.78266 15.3511 7.54564 12.1897C6.51764 9.56239 6.7221 9.02772 6.77365 8.45751C6.825 7.88719 7.51996 6.61727 8.2406 6.35819C8.96114 6.09891 9.57878 6.09891 9.70785 6.17665C9.83644 6.25438 9.91366 6.46181 10.0679 6.77284C10.2223 7.08397 10.9689 8.61307 11.0719 8.89813C11.1748 9.18329 11.2262 9.39061 10.9172 9.59803C10.6086 9.80546 9.91366 10.4011 9.70785 10.5826C9.50155 10.764 9.47587 10.9455 9.63023 11.2564C9.78508 11.5677 10.1106 12.5693 11.1618 13.7577C11.9798 14.6823 12.99 15.3065 13.299 15.488C13.6076 15.6694 13.7748 15.5074 13.9286 15.3515C14.0669 15.2117 14.289 15.0403 14.4691 14.8847C14.6493 14.7296 14.7779 14.6778 14.9837 14.5741C15.1897 14.4703 15.37 14.5223 15.5243 14.5999C15.6787 14.6778 17.2049 15.2822 17.8151 15.5588Z" fill="white"/>
  </g>
  <defs>
    <linearGradient id="paint0_linear_2_32" x1="-2380.91" y1="-1182.14" x2="24.5686" y2="-1182.14" gradientUnits="userSpaceOnUse">
      <stop stop-color="#1FAF38"/>
      <stop offset="1" stop-color="#60D669"/>
    </linearGradient>
    <linearGradient id="paint1_linear_2_32" x1="-2466.73" y1="-1225" x2="25" y2="-1225" gradientUnits="userSpaceOnUse">
      <stop stop-color="#F9F9F9"/>
      <stop offset="1" stop-color="white"/>
    </linearGradient>
    <clipPath id="clip0_2_32">
      <rect width="25" height="25" fill="white" transform="matrix(0 -1 -1 0 25 25)"/>
    </clipPath>
  </defs>
</svg>